<?xml version="1.0" encoding="utf-8"?>
<!-- Generator: Adobe Illustrator 22.0.0, SVG Export Plug-In . SVG Version: 6.00 Build 0)  -->
<svg style="enable-background:new 0 0 17.998 18;" id="Layer_1" version="1.1" viewBox="0 0 17.998 18"
  x="0px"
  xmlns="http://www.w3.org/2000/svg" y="0px" xml:space="preserve">
<g class="st0" id="Layer_2_1_">
	<line class="st1" x1="1.063" x2="1.063" y1="0" y2="17.996"/>
  <line class="st1" x1="2.06" x2="2.06" y1="0" y2="17.996"/>
  <line class="st1" x1="3.058" x2="3.058" y1="0" y2="17.996"/>
  <line class="st1" x1="4.055" x2="4.055" y1="0" y2="17.996"/>
  <line class="st1" x1="5.053" x2="5.053" y1="0" y2="17.996"/>
  <line class="st1" x1="6.05" x2="6.05" y1="0" y2="17.996"/>
  <line class="st1" x1="7.048" x2="7.048" y1="0" y2="17.996"/>
  <line class="st1" x1="8.045" x2="8.045" y1="0" y2="17.996"/>
  <line class="st1" x1="9.043" x2="9.043" y1="0" y2="17.996"/>
  <line class="st1" x1="10.04" x2="10.04" y1="0" y2="17.996"/>
  <line class="st1" x1="11.038" x2="11.038" y1="0" y2="17.996"/>
  <line class="st1" x1="12.036" x2="12.036" y1="0" y2="17.996"/>
  <line class="st1" x1="13.033" x2="13.033" y1="0" y2="17.996"/>
  <line class="st1" x1="14.031" x2="14.031" y1="0" y2="17.996"/>
  <line class="st1" x1="15.028" x2="15.028" y1="0" y2="17.996"/>
  <line class="st1" x1="16.026" x2="16.026" y1="0" y2="17.996"/>
  <line class="st1" x1="17.023" x2="17.023" y1="0" y2="17.996"/>
  <line class="st1" x1="0.021" x2="18.021" y1="16.036" y2="16.036"/>
  <line class="st1" x1="0.021" x2="18.021" y1="17.037" y2="17.037"/>
  <line class="st1" x1="0.021" x2="18.021" y1="15.035" y2="15.035"/>
  <line class="st1" x1="0.021" x2="18.021" y1="14.035" y2="14.035"/>
  <line class="st1" x1="0.021" x2="18.021" y1="13.034" y2="13.034"/>
  <line class="st1" x1="0.021" x2="18.021" y1="12.033" y2="12.033"/>
  <line class="st1" x1="0.021" x2="18.021" y1="11.032" y2="11.032"/>
  <line class="st1" x1="0.021" x2="18.021" y1="10.032" y2="10.032"/>
  <line class="st1" x1="0.021" x2="18.021" y1="9.031" y2="9.031"/>
  <line class="st1" x1="0.021" x2="18.021" y1="8.03" y2="8.03"/>
  <line class="st1" x1="0.021" x2="18.021" y1="7.029" y2="7.029"/>
  <line class="st1" x1="0.021" x2="18.021" y1="6.029" y2="6.029"/>
  <line class="st1" x1="0.021" x2="18.021" y1="5.028" y2="5.028"/>
  <line class="st1" x1="0.021" x2="18.021" y1="4.027" y2="4.027"/>
  <line class="st1" x1="0.021" x2="18.021" y1="3.026" y2="3.026"/>
  <line class="st1" x1="0.021" x2="18.021" y1="2.026" y2="2.026"/>
  <line class="st1" x1="0.021" x2="18.021" y1="1.025" y2="1.025"/>
</g>
  <g id="Layer_3">
</g>
  <g id="Layer_4">
	<g>
		<path class="st2" d="M8.004,12.372c0,0.231,0.154,0.343,0.355,0.343c0.225,0,0.408-0.148,0.467-0.331
			c0.012-0.047,0.018-0.1,0.018-0.154v-0.313C8.371,11.911,8.004,12.023,8.004,12.372z"/>
    <path class="st2" d="M14.997,3.025l-2-2.033L2,0.971v15.046L3,17l8.998-0.001l0.017-7.275l2.955,2.31L14.997,3.025z M4,2.025
			h4.016L7.982,7.023L5.979,4.892L4,7.024V2.025z M5.903,13.282L5.595,12.26H4.454L4.17,13.282H3.237l1.218-3.984h1.182l1.235,3.984
			H5.903z M8.95,13.282l-0.053-0.29H8.879c-0.189,0.231-0.485,0.355-0.827,0.355c-0.585,0-0.934-0.425-0.934-0.886
			c0-0.751,0.674-1.111,1.696-1.105v-0.041c0-0.154-0.083-0.372-0.526-0.372c-0.295,0-0.609,0.101-0.798,0.219l-0.166-0.579
			c0.201-0.112,0.597-0.254,1.123-0.254c0.964,0,1.271,0.567,1.271,1.247v1.005c0,0.278,0.012,0.544,0.041,0.703H8.95V13.282z"/>
    <path class="st2" d="M4.584,11.586h0.881c0,0-0.39-1.377-0.449-1.614L4.584,11.586z"/>
    <polygon class="st2" points="12.994,11.916 12.966,17.021 14.52,15.022 16.997,15.022 		"/>
	</g>
</g>
  <g id="Layer_5">
</g>
  <g id="Layer_6">
</g>
  <g id="Layer_7">
</g>
  <g id="Layer_8">
</g>
  <g id="Layer_9">
</g>
  <g id="Layer_10">
</g>
  <g id="Layer_11">
</g>
  <g id="Layer_12">
</g>
  <g id="Layer_13">
</g>
  <g id="Layer_14">
</g>
  <g id="Layer_15">
</g>
  <g id="Layer_16">
</g>
  <g id="Layer_17">
</g>
  <g id="Layer_18">
</g>
  <g id="Layer_22">
</g>
  <g id="Layer_19">
</g>
  <g id="Layer_20">
</g>
  <g id="Layer_21">
</g>
  <g id="Layer_23">
</g>
  <g id="Layer_24">
</g>
  <g id="Layer_25">
</g>
  <g id="Layer_26">
</g>
  <g id="Layer_27">
</g>
  <g id="Layer_28">
</g>
  <g id="Layer_29">
</g>
  <g id="Layer_30">
</g>
  <style type="text/css">
	.st0{display:none;}
	.st1{display:inline;fill:none;stroke:#B3DCE0;stroke-width:0.2;stroke-miterlimit:10;}
	.st2{fill:#4C6A8D;}
</style>
</svg>
