<?xml version="1.0" encoding="utf-8"?>
<!-- Generator: Adobe Illustrator 22.0.0, SVG Export Plug-In . SVG Version: 6.00 Build 0)  -->
<svg style="enable-background:new 0 0 18 18;" id="Layer_1" version="1.1" viewBox="0 0 18 18"
  x="0px"
  xmlns="http://www.w3.org/2000/svg" y="0px" xml:space="preserve">
<g class="st0" id="Grid">
	<circle class="st6" cx="9" cy="9" r="10"/>
  <g class="st1">
		<path class="st2" d="M18.8-0.8L18.8-0.8v19.6H-0.8V-0.8H18.8 M19-1H-1v20h20V-0.7V-1L19-1z"/>
	</g>
  <g class="st3">
		<line class="st4" x1="-2" x2="-2" y1="-3" y2="21"/>
    <line class="st4" x1="-1" x2="-1" y1="-3" y2="21"/>
    <line class="st4" x1="0" x2="0" y1="-3" y2="21"/>
    <line class="st4" x1="1" x2="1" y1="-3" y2="21"/>
    <line class="st4" x1="2" x2="2" y1="-3" y2="21"/>
    <line class="st4" x1="3" x2="3" y1="-3" y2="21"/>
    <line class="st4" x1="4" x2="4" y1="-3" y2="21"/>
    <line class="st4" x1="5" x2="5" y1="-3" y2="21"/>
    <line class="st4" x1="6" x2="6" y1="-3" y2="21"/>
    <line class="st4" x1="7" x2="7" y1="-3" y2="21"/>
    <line class="st4" x1="8" x2="8" y1="-3" y2="21"/>
    <line class="st4" x1="9" x2="9" y1="-3" y2="21"/>
    <line class="st4" x1="10" x2="10" y1="-3" y2="21"/>
    <line class="st4" x1="11" x2="11" y1="-3" y2="21"/>
    <line class="st4" x1="12" x2="12" y1="-3" y2="21"/>
    <line class="st4" x1="13" x2="13" y1="-3" y2="21"/>
    <line class="st4" x1="14" x2="14" y1="-3" y2="21"/>
    <line class="st4" x1="15" x2="15" y1="-3" y2="21"/>
    <line class="st4" x1="16" x2="16" y1="-3" y2="21"/>
    <line class="st4" x1="17" x2="17" y1="-3" y2="21"/>
    <line class="st4" x1="18" x2="18" y1="-3" y2="21"/>
    <line class="st4" x1="19" x2="19" y1="-3" y2="21"/>
    <line class="st4" x1="20" x2="20" y1="-3" y2="21"/>
    <line class="st4" x1="21" x2="-3" y1="-2" y2="-2"/>
    <line class="st4" x1="21" x2="-3" y1="-1" y2="-1"/>
    <line class="st4" x1="21" x2="-3" y1="0" y2="0"/>
    <line class="st4" x1="21" x2="-3" y1="1" y2="1"/>
    <line class="st4" x1="21" x2="-3" y1="2" y2="2"/>
    <line class="st4" x1="21" x2="-3" y1="3" y2="3"/>
    <line class="st4" x1="21" x2="-3" y1="4" y2="4"/>
    <line class="st4" x1="21" x2="-3" y1="5" y2="5"/>
    <line class="st4" x1="21" x2="-3" y1="6" y2="6"/>
    <line class="st4" x1="21" x2="-3" y1="7" y2="7"/>
    <line class="st4" x1="21" x2="-3" y1="8" y2="8"/>
    <line class="st4" x1="21" x2="-3" y1="9" y2="9"/>
    <line class="st4" x1="21" x2="-3" y1="10" y2="10"/>
    <line class="st4" x1="21" x2="-3" y1="11" y2="11"/>
    <line class="st4" x1="21" x2="-3" y1="12" y2="12"/>
    <line class="st4" x1="21" x2="-3" y1="13" y2="13"/>
    <line class="st4" x1="21" x2="-3" y1="14" y2="14"/>
    <line class="st4" x1="21" x2="-3" y1="15" y2="15"/>
    <line class="st4" x1="21" x2="-3" y1="16" y2="16"/>
    <line class="st4" x1="21" x2="-3" y1="17" y2="17"/>
    <line class="st4" x1="21" x2="-3" y1="18" y2="18"/>
    <line class="st4" x1="21" x2="-3" y1="19" y2="19"/>
    <line class="st4" x1="21" x2="-3" y1="20" y2="20"/>
    <rect class="st5" height="24" width="24" x="-3" y="-3"/>
	</g>
  <line class="st6" x1="-3" x2="21" y1="-3" y2="21"/>
  <line class="st6" x1="21" x2="-3" y1="-3" y2="21"/>
  <line class="st6" x1="-3" x2="21" y1="9" y2="9"/>
  <line class="st6" x1="-3" x2="21" y1="3" y2="3"/>
  <line class="st6" x1="-3" x2="21" y1="14" y2="14"/>
  <line class="st6" x1="15" x2="15" y1="-3" y2="21"/>
  <line class="st6" x1="3" x2="3" y1="-3" y2="21"/>
  <line class="st6" x1="9" x2="9" y1="-3" y2="21"/>
</g>
  <g id="Delay">
</g>
  <g id="App_integration">
</g>
  <g id="Active_directory">
</g>
  <g id="Record">
</g>
  <g id="Clipboard">
</g>
  <g id="Comment">
</g>
  <g id="Database">
</g>
  <g id="Wait">
</g>
  <g id="Web_service_-_soap">
</g>
  <g id="Web_service_-_rest">
</g>
  <g id="Service">
</g>
  <g id="Keyboard">
</g>
  <g id="SNMP">
</g>
  <g id="OCR">
</g>
  <g id="Launch_site">
</g>
  <g id="xml">
</g>
  <g id="OCR_1_">
</g>
  <g id="package">
</g>
  <g id="window">
</g>
  <g id="OPERATIONS">
</g>
  <g id="VARIABLES">
</g>
  <g id="Javascript">
</g>
  <g id="JAva">
</g>
  <g id="VBS">
</g>
  <g id="Python">
</g>
  <g id="Terminal">
</g>
  <g id="Sound">
</g>
  <g id="Screen_cap">
</g>
  <g id="Print">
</g>
  <g id="Prompt">
</g>
  <g id="Read">
</g>
  <g id="SAP_1_">
</g>
  <g id="PGP">
</g>
  <g id="System">
</g>
  <g id="PDF">
</g>
  <g id="command">
</g>
  <g id="Message_box">
</g>
  <g id="FTP">
</g>
  <g id="Folder">
</g>
  <g id="excel">
</g>
  <g id="device">
</g>
  <g id="email">
</g>
  <g class="st0" id="Grid_1_">
	<circle class="st6" cx="-38.006" cy="9" r="10"/>
    <g class="st1">
		<path class="st2"
      d="M-28.206-0.8L-28.206-0.8v19.6h-19.6V-0.8H-28.206 M-28.006-1h-20v20h20V-0.7V-1L-28.006-1z"/>
	</g>
    <g class="st3">
		<line class="st4" x1="-49.006" x2="-49.006" y1="-3" y2="21"/>
      <line class="st4" x1="-48.006" x2="-48.006" y1="-3" y2="21"/>
      <line class="st4" x1="-47.006" x2="-47.006" y1="-3" y2="21"/>
      <line class="st4" x1="-46.006" x2="-46.006" y1="-3" y2="21"/>
      <line class="st4" x1="-45.006" x2="-45.006" y1="-3" y2="21"/>
      <line class="st4" x1="-44.006" x2="-44.006" y1="-3" y2="21"/>
      <line class="st4" x1="-43.006" x2="-43.006" y1="-3" y2="21"/>
      <line class="st4" x1="-42.006" x2="-42.006" y1="-3" y2="21"/>
      <line class="st4" x1="-41.006" x2="-41.006" y1="-3" y2="21"/>
      <line class="st4" x1="-40.006" x2="-40.006" y1="-3" y2="21"/>
      <line class="st4" x1="-39.006" x2="-39.006" y1="-3" y2="21"/>
      <line class="st4" x1="-38.006" x2="-38.006" y1="-3" y2="21"/>
      <line class="st4" x1="-37.006" x2="-37.006" y1="-3" y2="21"/>
      <line class="st4" x1="-36.006" x2="-36.006" y1="-3" y2="21"/>
      <line class="st4" x1="-35.006" x2="-35.006" y1="-3" y2="21"/>
      <line class="st4" x1="-34.006" x2="-34.006" y1="-3" y2="21"/>
      <line class="st4" x1="-33.006" x2="-33.006" y1="-3" y2="21"/>
      <line class="st4" x1="-32.006" x2="-32.006" y1="-3" y2="21"/>
      <line class="st4" x1="-31.006" x2="-31.006" y1="-3" y2="21"/>
      <line class="st4" x1="-30.006" x2="-30.006" y1="-3" y2="21"/>
      <line class="st4" x1="-29.006" x2="-29.006" y1="-3" y2="21"/>
      <line class="st4" x1="-28.006" x2="-28.006" y1="-3" y2="21"/>
      <line class="st4" x1="-27.006" x2="-27.006" y1="-3" y2="21"/>
      <line class="st4" x1="-26.006" x2="-50.006" y1="-2" y2="-2"/>
      <line class="st4" x1="-26.006" x2="-50.006" y1="-1" y2="-1"/>
      <line class="st4" x1="-26.006" x2="-50.006" y1="0" y2="0"/>
      <line class="st4" x1="-26.006" x2="-50.006" y1="1" y2="1"/>
      <line class="st4" x1="-26.006" x2="-50.006" y1="2" y2="2"/>
      <line class="st4" x1="-26.006" x2="-50.006" y1="3" y2="3"/>
      <line class="st4" x1="-26.006" x2="-50.006" y1="4" y2="4"/>
      <line class="st4" x1="-26.006" x2="-50.006" y1="5" y2="5"/>
      <line class="st4" x1="-26.006" x2="-50.006" y1="6" y2="6"/>
      <line class="st4" x1="-26.006" x2="-50.006" y1="7" y2="7"/>
      <line class="st4" x1="-26.006" x2="-50.006" y1="8" y2="8"/>
      <line class="st4" x1="-26.006" x2="-50.006" y1="9" y2="9"/>
      <line class="st4" x1="-26.006" x2="-50.006" y1="10" y2="10"/>
      <line class="st4" x1="-26.006" x2="-50.006" y1="11" y2="11"/>
      <line class="st4" x1="-26.006" x2="-50.006" y1="12" y2="12"/>
      <line class="st4" x1="-26.006" x2="-50.006" y1="13" y2="13"/>
      <line class="st4" x1="-26.006" x2="-50.006" y1="14" y2="14"/>
      <line class="st4" x1="-26.006" x2="-50.006" y1="15" y2="15"/>
      <line class="st4" x1="-26.006" x2="-50.006" y1="16" y2="16"/>
      <line class="st4" x1="-26.006" x2="-50.006" y1="17" y2="17"/>
      <line class="st4" x1="-26.006" x2="-50.006" y1="18" y2="18"/>
      <line class="st4" x1="-26.006" x2="-50.006" y1="19" y2="19"/>
      <line class="st4" x1="-26.006" x2="-50.006" y1="20" y2="20"/>
      <rect class="st5" height="24" width="24" x="-50.006" y="-3"/>
	</g>
    <line class="st6" x1="-50.006" x2="-26.006" y1="-3" y2="21"/>
    <line class="st6" x1="-26.006" x2="-50.006" y1="-3" y2="21"/>
    <line class="st6" x1="-50.006" x2="-26.006" y1="9" y2="9"/>
    <line class="st6" x1="-50.006" x2="-26.006" y1="3" y2="3"/>
    <line class="st6" x1="-50.006" x2="-26.006" y1="14" y2="14"/>
    <line class="st6" x1="-32.006" x2="-32.006" y1="-3" y2="21"/>
    <line class="st6" x1="-44.006" x2="-44.006" y1="-3" y2="21"/>
    <line class="st6" x1="-38.006" x2="-38.006" y1="-3" y2="21"/>
</g>
  <g id="Delay_1_">
</g>
  <g id="App_integration_1_">
</g>
  <g id="Active_directory_1_">
</g>
  <g id="Record_1_">
</g>
  <g id="Clipboard_1_">
</g>
  <g id="Comment_1_">
</g>
  <g id="Database_1_">
</g>
  <g id="Wait_1_">
</g>
  <g id="Web_service_-_soap_1_">
</g>
  <g id="Web_service_-_rest_1_">
</g>
  <g id="Service_1_">
</g>
  <g id="Keyboard_1_">
</g>
  <g id="SNMP_1_">
</g>
  <g id="OCR_3_">
</g>
  <g id="Launch_site_1_">
</g>
  <g id="xml_1_">
</g>
  <g id="OCR_2_">
</g>
  <g id="package_1_">
</g>
  <g id="window_1_">
</g>
  <g id="OPERATIONS_1_">
</g>
  <g id="VARIABLES_1_">
</g>
  <g id="Javascript_1_">
</g>
  <g id="JAva_1_">
</g>
  <g id="VBS_1_">
</g>
  <g id="Python_1_">
</g>
  <g id="Terminal_1_">
</g>
  <g id="Sound_1_">
</g>
  <g id="Screen_cap_1_">
</g>
  <g id="Print_1_">
</g>
  <g id="Prompt_1_">
</g>
  <g id="Read_1_">
</g>
  <g id="SAP_2_">
</g>
  <g id="PGP_1_">
</g>
  <g id="System_1_">
</g>
  <g id="PDF_1_">
</g>
  <g id="command_1_">
</g>
  <g id="Message_box_1_">
</g>
  <g id="FTP_1_">
</g>
  <g id="Folder_1_">
</g>
  <g id="Excel_1_">
</g>
  <g id="device_1_">
</g>
  <g id="email_1_">
</g>
  <g class="st0" id="Grid_2_">
	<circle class="st6" cx="-15.012" cy="9" r="10"/>
    <g class="st1">
		<path class="st2"
      d="M-5.212-0.8L-5.212-0.8v19.6h-19.6V-0.8H-5.212 M-5.012-1h-20v20h20V-0.7L-5.012-1L-5.012-1z"/>
	</g>
    <g class="st3">
		<line class="st4" x1="-26.012" x2="-26.012" y1="-3" y2="21"/>
      <line class="st4" x1="-25.012" x2="-25.012" y1="-3" y2="21"/>
      <line class="st4" x1="-24.012" x2="-24.012" y1="-3" y2="21"/>
      <line class="st4" x1="-23.012" x2="-23.012" y1="-3" y2="21"/>
      <line class="st4" x1="-22.012" x2="-22.012" y1="-3" y2="21"/>
      <line class="st4" x1="-21.012" x2="-21.012" y1="-3" y2="21"/>
      <line class="st4" x1="-20.012" x2="-20.012" y1="-3" y2="21"/>
      <line class="st4" x1="-19.012" x2="-19.012" y1="-3" y2="21"/>
      <line class="st4" x1="-18.012" x2="-18.012" y1="-3" y2="21"/>
      <line class="st4" x1="-17.012" x2="-17.012" y1="-3" y2="21"/>
      <line class="st4" x1="-16.012" x2="-16.012" y1="-3" y2="21"/>
      <line class="st4" x1="-15.012" x2="-15.012" y1="-3" y2="21"/>
      <line class="st4" x1="-14.012" x2="-14.012" y1="-3" y2="21"/>
      <line class="st4" x1="-13.012" x2="-13.012" y1="-3" y2="21"/>
      <line class="st4" x1="-12.012" x2="-12.012" y1="-3" y2="21"/>
      <line class="st4" x1="-11.012" x2="-11.012" y1="-3" y2="21"/>
      <line class="st4" x1="-10.012" x2="-10.012" y1="-3" y2="21"/>
      <line class="st4" x1="-9.012" x2="-9.012" y1="-3" y2="21"/>
      <line class="st4" x1="-8.012" x2="-8.012" y1="-3" y2="21"/>
      <line class="st4" x1="-7.012" x2="-7.012" y1="-3" y2="21"/>
      <line class="st4" x1="-6.012" x2="-6.012" y1="-3" y2="21"/>
      <line class="st4" x1="-5.012" x2="-5.012" y1="-3" y2="21"/>
      <line class="st4" x1="-4.012" x2="-4.012" y1="-3" y2="21"/>
      <line class="st4" x1="-3.012" x2="-27.012" y1="-2" y2="-2"/>
      <line class="st4" x1="-3.012" x2="-27.012" y1="-1" y2="-1"/>
      <line class="st4" x1="-3.012" x2="-27.012" y1="0" y2="0"/>
      <line class="st4" x1="-3.012" x2="-27.012" y1="1" y2="1"/>
      <line class="st4" x1="-3.012" x2="-27.012" y1="2" y2="2"/>
      <line class="st4" x1="-3.012" x2="-27.012" y1="3" y2="3"/>
      <line class="st4" x1="-3.012" x2="-27.012" y1="4" y2="4"/>
      <line class="st4" x1="-3.012" x2="-27.012" y1="5" y2="5"/>
      <line class="st4" x1="-3.012" x2="-27.012" y1="6" y2="6"/>
      <line class="st4" x1="-3.012" x2="-27.012" y1="7" y2="7"/>
      <line class="st4" x1="-3.012" x2="-27.012" y1="8" y2="8"/>
      <line class="st4" x1="-3.012" x2="-27.012" y1="9" y2="9"/>
      <line class="st4" x1="-3.012" x2="-27.012" y1="10" y2="10"/>
      <line class="st4" x1="-3.012" x2="-27.012" y1="11" y2="11"/>
      <line class="st4" x1="-3.012" x2="-27.012" y1="12" y2="12"/>
      <line class="st4" x1="-3.012" x2="-27.012" y1="13" y2="13"/>
      <line class="st4" x1="-3.012" x2="-27.012" y1="14" y2="14"/>
      <line class="st4" x1="-3.012" x2="-27.012" y1="15" y2="15"/>
      <line class="st4" x1="-3.012" x2="-27.012" y1="16" y2="16"/>
      <line class="st4" x1="-3.012" x2="-27.012" y1="17" y2="17"/>
      <line class="st4" x1="-3.012" x2="-27.012" y1="18" y2="18"/>
      <line class="st4" x1="-3.012" x2="-27.012" y1="19" y2="19"/>
      <line class="st4" x1="-3.012" x2="-27.012" y1="20" y2="20"/>
      <rect class="st5" height="24" width="24" x="-27.012" y="-3"/>
	</g>
    <line class="st6" x1="-27.012" x2="-3.012" y1="-3" y2="21"/>
    <line class="st6" x1="-3.012" x2="-27.012" y1="-3" y2="21"/>
    <line class="st6" x1="-27.012" x2="-3.012" y1="9" y2="9"/>
    <line class="st6" x1="-27.012" x2="-3.012" y1="3" y2="3"/>
    <line class="st6" x1="-27.012" x2="-3.012" y1="14" y2="14"/>
    <line class="st6" x1="-9.012" x2="-9.012" y1="-3" y2="21"/>
    <line class="st6" x1="-21.012" x2="-21.012" y1="-3" y2="21"/>
    <line class="st6" x1="-15.012" x2="-15.012" y1="-3" y2="21"/>
</g>
  <path class="st7" d="M10.994,1h-7c-0.552,0-1,0.448-1,1v14c0,0.552,0.448,1,1,1h10c0.552,0,1-0.448,1-1V5L10.994,1z M3.993,16V2
	h6.001v4h3.999v10H3.993z"/>
  <style type="text/css">
	.st0{display:none;}
	.st1{display:inline;opacity:0.5;}
	.st2{fill:#6FCBDC;}
	.st3{display:inline;}
	.st4{opacity:0.5;fill:none;stroke:#A8A7A8;stroke-width:0.05;stroke-miterlimit:10;enable-background:new    ;}
	.st5{fill:none;stroke:#A8A7A8;stroke-width:0.05;stroke-miterlimit:10;}
	.st6{display:inline;opacity:0.5;fill:none;stroke:#6FCBDC;stroke-width:0.2;stroke-miterlimit:10;enable-background:new    ;}
	.st7{fill:#4C6A8D;}
</style>
</svg>
