<?xml version="1.0" encoding="utf-8"?>
<!-- Generator: Adobe Illustrator 22.0.0, SVG Export Plug-In . SVG Version: 6.00 Build 0)  -->
<svg style="enable-background:new 0 0 17.998 18;" id="Layer_1" version="1.1" viewBox="0 0 17.998 18"
  x="0px"
  xmlns="http://www.w3.org/2000/svg" y="0px" xml:space="preserve">
<g class="st0" id="Layer_2_1_">
	<line class="st1" x1="1.041" x2="1.041" y1="0.002" y2="17.998"/>
  <line class="st1" x1="2.038" x2="2.038" y1="0.002" y2="17.998"/>
  <line class="st1" x1="3.036" x2="3.036" y1="0.002" y2="17.998"/>
  <line class="st1" x1="4.033" x2="4.033" y1="0.002" y2="17.998"/>
  <line class="st1" x1="5.031" x2="5.031" y1="0.002" y2="17.998"/>
  <line class="st1" x1="6.028" x2="6.028" y1="0.002" y2="17.998"/>
  <line class="st1" x1="7.026" x2="7.026" y1="0.002" y2="17.998"/>
  <line class="st1" x1="8.023" x2="8.023" y1="0.002" y2="17.998"/>
  <line class="st1" x1="9.021" x2="9.021" y1="0.002" y2="17.998"/>
  <line class="st1" x1="10.019" x2="10.019" y1="0.002" y2="17.998"/>
  <line class="st1" x1="11.016" x2="11.016" y1="0.002" y2="17.998"/>
  <line class="st1" x1="12.014" x2="12.014" y1="0.002" y2="17.998"/>
  <line class="st1" x1="13.011" x2="13.011" y1="0.002" y2="17.998"/>
  <line class="st1" x1="14.009" x2="14.009" y1="0.002" y2="17.998"/>
  <line class="st1" x1="15.006" x2="15.006" y1="0.002" y2="17.998"/>
  <line class="st1" x1="16.004" x2="16.004" y1="0.002" y2="17.998"/>
  <line class="st1" x1="17.001" x2="17.001" y1="0.002" y2="17.998"/>
  <line class="st1" x1="-0.001" x2="17.999" y1="16.038" y2="16.038"/>
  <line class="st1" x1="-0.001" x2="17.999" y1="17.039" y2="17.039"/>
  <line class="st1" x1="-0.001" x2="17.999" y1="14.037" y2="14.037"/>
  <line class="st1" x1="-0.001" x2="17.999" y1="15.037" y2="15.037"/>
  <line class="st1" x1="-0.001" x2="17.999" y1="13.036" y2="13.036"/>
  <line class="st1" x1="-0.001" x2="17.999" y1="12.035" y2="12.035"/>
  <line class="st1" x1="-0.001" x2="17.999" y1="11.035" y2="11.035"/>
  <line class="st1" x1="-0.001" x2="17.999" y1="10.034" y2="10.034"/>
  <line class="st1" x1="-0.001" x2="17.999" y1="9.033" y2="9.033"/>
  <line class="st1" x1="-0.001" x2="17.999" y1="8.032" y2="8.032"/>
  <line class="st1" x1="-0.001" x2="17.999" y1="7.032" y2="7.032"/>
  <line class="st1" x1="-0.001" x2="17.999" y1="6.031" y2="6.031"/>
  <line class="st1" x1="-0.001" x2="17.999" y1="5.03" y2="5.03"/>
  <line class="st1" x1="-0.001" x2="17.999" y1="4.029" y2="4.029"/>
  <line class="st1" x1="-0.001" x2="17.999" y1="3.029" y2="3.029"/>
  <line class="st1" x1="-0.001" x2="17.999" y1="2.028" y2="2.028"/>
  <line class="st1" x1="-0.001" x2="17.999" y1="1.027" y2="1.027"/>
</g>
  <g id="Layer_3">
</g>
  <g id="Layer_4">
</g>
  <g id="Layer_5">
</g>
  <g id="Layer_6">
</g>
  <g id="Layer_7">
</g>
  <g id="Layer_8">
</g>
  <g id="Layer_9">
</g>
  <g id="Layer_10">
</g>
  <g id="Layer_11">
</g>
  <g id="Layer_12">
</g>
  <g id="Layer_13">
</g>
  <g id="Layer_14">
</g>
  <g id="Layer_15">
</g>
  <g id="Layer_16">
</g>
  <g id="Layer_17">
</g>
  <g id="Layer_18">
</g>
  <g id="Layer_22">
</g>
  <g id="Layer_19">
</g>
  <g id="Layer_20">
</g>
  <g id="Layer_21">
</g>
  <g id="Layer_23">
</g>
  <g id="Layer_24">
</g>
  <g id="Layer_25">
</g>
  <g id="Layer_26">
</g>
  <g id="Layer_27">
</g>
  <g id="Layer_28">
</g>
  <g id="Layer_29">
</g>
  <g id="Layer_30">
	<path class="st2" d="M6.848,2.028H3.214c-0.641,0-1.176,0.641-1.176,1.176v3.634c0,0.748,0.534,1.176,1.176,1.176h2.672
		L3.017,12.05h2.031l2.976-4.036l0,0l0,0l0,0l0,0v-4.81C8.023,2.669,7.596,2.028,6.848,2.028z"/>
    <path class="st2" d="M14.828,2.028h-3.634c-0.641,0-1.176,0.641-1.176,1.176v3.634c0,0.748,0.534,1.176,1.176,1.176h2.672
		l-0.855,1.203l1.316,1.07l1.676-2.273l0,0l0,0l0,0l0,0v-4.81C16.004,2.669,15.576,2.028,14.828,2.028z"/>
    <polygon class="st2" points="12.048,11.035 12.013,17.023 13.8,14.539 17.022,14.539 	"/>
</g>
  <style type="text/css">
	.st0{display:none;}
	.st1{display:inline;fill:none;stroke:#B3DCE0;stroke-width:0.2;stroke-miterlimit:10;}
	.st2{fill:#4C6A8D;}
</style>
</svg>
