<?xml version="1.0" encoding="utf-8"?>
<!-- Generator: Adobe Illustrator 22.0.0, SVG Export Plug-In . SVG Version: 6.00 Build 0)  -->
<svg style="enable-background:new 0 0 17.998 18;" id="Layer_1" version="1.1" viewBox="0 0 17.998 18"
  x="0px"
  xmlns="http://www.w3.org/2000/svg" y="0px" xml:space="preserve">
<g class="st0" id="Layer_2_1_">
	<line class="st1" x1="1.063" x2="1.063" y1="0" y2="17.996"/>
  <line class="st1" x1="2.06" x2="2.06" y1="0" y2="17.996"/>
  <line class="st1" x1="3.058" x2="3.058" y1="0" y2="17.996"/>
  <line class="st1" x1="4.055" x2="4.055" y1="0" y2="17.996"/>
  <line class="st1" x1="5.053" x2="5.053" y1="0" y2="17.996"/>
  <line class="st1" x1="6.05" x2="6.05" y1="0" y2="17.996"/>
  <line class="st1" x1="7.048" x2="7.048" y1="0" y2="17.996"/>
  <line class="st1" x1="8.045" x2="8.045" y1="0" y2="17.996"/>
  <line class="st1" x1="9.043" x2="9.043" y1="0" y2="17.996"/>
  <line class="st1" x1="10.04" x2="10.04" y1="0" y2="17.996"/>
  <line class="st1" x1="11.038" x2="11.038" y1="0" y2="17.996"/>
  <line class="st1" x1="12.036" x2="12.036" y1="0" y2="17.996"/>
  <line class="st1" x1="13.033" x2="13.033" y1="0" y2="17.996"/>
  <line class="st1" x1="14.031" x2="14.031" y1="0" y2="17.996"/>
  <line class="st1" x1="15.028" x2="15.028" y1="0" y2="17.996"/>
  <line class="st1" x1="16.026" x2="16.026" y1="0" y2="17.996"/>
  <line class="st1" x1="17.023" x2="17.023" y1="0" y2="17.996"/>
  <line class="st1" x1="0.021" x2="18.021" y1="16.036" y2="16.036"/>
  <line class="st1" x1="0.021" x2="18.021" y1="17.037" y2="17.037"/>
  <line class="st1" x1="0.021" x2="18.021" y1="14.035" y2="14.035"/>
  <line class="st1" x1="0.021" x2="18.021" y1="15.035" y2="15.035"/>
  <line class="st1" x1="0.021" x2="18.021" y1="13.034" y2="13.034"/>
  <line class="st1" x1="0.021" x2="18.021" y1="12.033" y2="12.033"/>
  <line class="st1" x1="0.021" x2="18.021" y1="11.032" y2="11.032"/>
  <line class="st1" x1="0.021" x2="18.021" y1="10.032" y2="10.032"/>
  <line class="st1" x1="0.021" x2="18.021" y1="9.031" y2="9.031"/>
  <line class="st1" x1="0.021" x2="18.021" y1="8.03" y2="8.03"/>
  <line class="st1" x1="0.021" x2="18.021" y1="7.029" y2="7.029"/>
  <line class="st1" x1="0.021" x2="18.021" y1="6.029" y2="6.029"/>
  <line class="st1" x1="0.021" x2="18.021" y1="5.028" y2="5.028"/>
  <line class="st1" x1="0.021" x2="18.021" y1="4.027" y2="4.027"/>
  <line class="st1" x1="0.021" x2="18.021" y1="3.026" y2="3.026"/>
  <line class="st1" x1="0.021" x2="18.021" y1="2.026" y2="2.026"/>
  <line class="st1" x1="0.021" x2="18.021" y1="1.025" y2="1.025"/>
</g>
  <g id="Layer_3">
</g>
  <g id="Layer_4">
</g>
  <g id="Layer_5">
</g>
  <g id="Layer_6">
</g>
  <g id="Layer_7">
</g>
  <g id="Layer_8">
</g>
  <g id="Layer_9">
</g>
  <g id="Layer_10">
	<path class="st2" d="M11.036,12.047H9.043v-2h6v1.247l1,0.753V2.174c0-0.644-0.562-1.166-1.255-1.166H2.298
		c-0.693,0-1.255,0.522-1.255,1.166v9.71c0,0.644,0.562,1.166,1.255,1.166h8.738V12.047z M9.043,4.041h6v2h-6V4.041z M9.043,7.045h6
		v2h-6V7.045z M8,12.047H2v-2h6V12.047z M8,9.045H2v-2h6V9.045z M8,6.041H2v-2h6V6.041z"/>
    <polygon class="st2" points="13.041,11.96 13.012,17.065 14.567,15.066 17.044,15.066 	"/>
</g>
  <g id="Layer_11">
</g>
  <g id="Layer_12">
</g>
  <g id="Layer_13">
</g>
  <g id="Layer_14">
</g>
  <g id="Layer_15">
</g>
  <g id="Layer_16">
</g>
  <g id="Layer_17">
</g>
  <g id="Layer_18">
</g>
  <g id="Layer_22">
</g>
  <g id="Layer_19">
</g>
  <g id="Layer_20">
</g>
  <g id="Layer_21">
</g>
  <g id="Layer_23">
</g>
  <g id="Layer_24">
</g>
  <g id="Layer_25">
</g>
  <g id="Layer_26">
</g>
  <g id="Layer_27">
</g>
  <g id="Layer_28">
</g>
  <g id="Layer_29">
</g>
  <g id="Layer_30">
</g>
  <style type="text/css">
	.st0{display:none;}
	.st1{display:inline;fill:none;stroke:#B3DCE0;stroke-width:0.2;stroke-miterlimit:10;}
	.st2{fill:#4C6A8D;}
</style>
</svg>
